<?xml version="1.0" encoding="utf-8"?>
<!-- Generator: Adobe Illustrator 27.3.1, SVG Export Plug-In . SVG Version: 6.00 Build 0)  -->
<svg version="1.1" id="Layer_1" xmlns="http://www.w3.org/2000/svg" xmlns:xlink="http://www.w3.org/1999/xlink" x="0px" y="0px"
	 viewBox="0 0 240 125" style="enable-background:new 0 0 240 125;" xml:space="preserve">
<style type="text/css">
	.st0{fill:#F26749;}
	.st1{fill:url(#SVGID_1_);}
	.st2{fill:url(#SVGID_00000021090165327359724350000014640094662707308457_);}
	.st3{fill:url(#SVGID_00000096772294738407092430000017157658124632283324_);}
	
		.st4{fill:none;stroke:url(#SVGID_00000137112539479158951540000003349459136394284697_);stroke-width:4;stroke-linecap:round;stroke-miterlimit:10;}
</style>
<path class="st0" d="M74.1,14.4c0.4-0.7,1.1-1.3,2.2-1.5c1.1-0.3,2.4-0.5,4.1-0.5c1.7,0,3.1,0.2,4.1,0.6c1,0.3,1.7,0.9,2.2,1.7
	c0.4,0.7,0.7,1.4,0.7,2.1c0.1,0.6,0.2,1.6,0.2,2.8V64c0,2.1-0.3,3.6-0.8,4.6c-0.5,1-1.3,1.6-2.3,1.9c-1,0.3-2.3,0.5-3.8,0.5
	c-1.5,0-2.8-0.1-3.7-0.4c-0.9-0.3-1.6-0.6-2.1-1c-0.5-0.4-0.8-0.9-1-1.6c-0.3-0.9-0.5-2.3-0.5-4.2v-9.8H51.5c-3.7,0-5.9-1-6.6-3
	c-0.3-0.9-0.4-2-0.4-3.4c0-1.4,0.1-2.5,0.2-3.2l6.6-26.8c0.3-1.2,0.6-2.2,0.8-2.8c0.3-0.6,0.7-1.3,1.4-1.8c0.7-0.6,1.7-0.9,2.8-0.9
	c1.1,0,2.3,0.2,3.7,0.6c3.7,1,5.6,2.7,5.6,5.1c0,0.9-0.2,2-0.6,3.4c-0.1,0.1-0.1,0.2-0.1,0.2l-4.9,19.5h13V19.1c0-1.2,0-2.1,0.1-2.7
	C73.4,15.8,73.7,15.1,74.1,14.4z M182.1,14.4c0.4-0.7,1.1-1.3,2.2-1.5c1.1-0.3,2.4-0.5,4.1-0.5c1.7,0,3.1,0.2,4.1,0.6
	c1,0.3,1.7,0.9,2.2,1.7c0.4,0.7,0.7,1.4,0.7,2.1c0.1,0.6,0.2,1.6,0.2,2.8V64c0,2.1-0.3,3.6-0.8,4.6c-0.5,1-1.3,1.6-2.3,1.9
	c-1,0.3-2.3,0.5-3.8,0.5c-1.5,0-2.8-0.1-3.7-0.4c-0.9-0.3-1.6-0.6-2.1-1c-0.5-0.4-0.8-0.9-1-1.6c-0.3-0.9-0.5-2.3-0.5-4.2v-9.8
	h-21.7c-3.7,0-5.9-1-6.6-3c-0.3-0.9-0.4-2-0.4-3.4c0-1.4,0.1-2.5,0.2-3.2l6.6-26.8c0.3-1.2,0.6-2.2,0.8-2.8c0.3-0.6,0.7-1.3,1.4-1.8
	c0.7-0.6,1.7-0.9,2.8-0.9s2.3,0.2,3.7,0.6c3.7,1,5.6,2.7,5.6,5.1c0,0.9-0.2,2-0.6,3.4c-0.1,0.1-0.1,0.2-0.1,0.2l-4.9,19.5h13V19.1
	c0-1.2,0-2.1,0.1-2.7C181.4,15.8,181.7,15.1,182.1,14.4z M4.1,114.7V96c0-0.5,0-0.9,0-1.1c0-0.2,0.1-0.5,0.3-0.8
	c0.3-0.6,1-0.9,2.1-0.9s1.9,0.1,2.3,0.4c0.4,0.3,0.6,0.7,0.7,1.2c0.8-1.1,2.1-1.7,3.8-1.7c1.7,0,3.4,0.8,5,2.5
	c1.6,1.6,2.3,3.6,2.3,5.7s-0.8,4.1-2.3,5.7c-1.5,1.6-3.2,2.5-4.9,2.5c-1.7,0-3-0.5-3.8-1.5v6.5c0,0.5,0,0.9-0.1,1.1
	c0,0.2-0.1,0.5-0.3,0.8c-0.1,0.3-0.4,0.5-0.8,0.7c-0.4,0.1-0.9,0.2-1.6,0.2s-1.2-0.1-1.6-0.2c-0.4-0.1-0.7-0.3-0.8-0.6
	c-0.1-0.3-0.2-0.6-0.3-0.8C4.1,115.5,4.1,115.2,4.1,114.7z M10.4,99.6c-0.5,0.6-0.7,1.2-0.7,1.9s0.2,1.3,0.7,1.9
	c0.5,0.6,1.2,0.8,1.9,0.8c0.8,0,1.5-0.3,2-0.8c0.6-0.6,0.8-1.2,0.8-1.9c0-0.7-0.3-1.3-0.8-1.9c-0.5-0.6-1.2-0.9-2-0.9
	C11.6,98.7,10.9,99,10.4,99.6z M33.7,95c0.1-1.2,1-1.8,2.5-1.8c0.8,0,1.5,0.1,1.9,0.2c0.4,0.1,0.7,0.4,0.8,0.7
	c0.2,0.3,0.3,0.6,0.3,0.9c0,0.2,0.1,0.6,0.1,1.1v11.2c0,0.5,0,0.9-0.1,1.1c0,0.2-0.1,0.5-0.3,0.8c-0.3,0.6-1,0.8-2.2,0.8
	c-1.2,0-1.9-0.1-2.3-0.4c-0.4-0.3-0.6-0.7-0.7-1.3c-0.8,1.1-2.1,1.7-4,1.7c-1.8,0-3.5-0.8-5.1-2.5c-1.6-1.7-2.4-3.6-2.4-5.9
	c0-2.2,0.8-4.2,2.4-5.9c1.6-1.7,3.3-2.5,5.2-2.5c0.7,0,1.4,0.1,2,0.4c0.6,0.3,1,0.5,1.2,0.7C33.3,94.6,33.5,94.8,33.7,95z
	 M27.8,101.7c0,0.7,0.3,1.3,0.8,1.9c0.6,0.6,1.2,0.8,2,0.8c0.8,0,1.4-0.3,2-0.9c0.5-0.6,0.8-1.2,0.8-1.9c0-0.7-0.3-1.4-0.8-2
	c-0.5-0.6-1.2-0.9-2-0.9c-0.8,0-1.5,0.3-2,0.9C28.1,100.3,27.8,101,27.8,101.7z M52.5,108c-0.8,1.1-2.1,1.6-3.9,1.6
	c-1.8,0-3.4-0.8-5-2.4c-1.5-1.6-2.3-3.6-2.3-5.7c0-2.2,0.8-4.1,2.3-5.7c1.6-1.6,3.3-2.5,5.1-2.5c0.7,0,1.4,0.1,2,0.4
	c0.6,0.3,1,0.5,1.2,0.7c0.2,0.2,0.4,0.4,0.5,0.6c0.1-0.6,0.3-1,0.6-1.3c0.4-0.3,1-0.5,1.8-0.5s1.4,0.1,1.8,0.2
	c0.4,0.1,0.7,0.4,0.8,0.7c0.2,0.3,0.3,0.6,0.3,0.8c0,0.2,0.1,0.6,0.1,1.1v13.2c0,2.5-0.9,4.4-2.6,5.9c-1.7,1.5-3.6,2.3-5.8,2.3
	c-1.6,0-3.2-0.4-4.6-1.2s-2.2-1.5-2.2-2.1c0-0.8,0.3-1.6,1-2.2c0.4-0.4,0.7-0.8,0.9-0.9c0.2-0.2,0.5-0.3,0.8-0.3
	c0.3,0,0.6,0.1,0.9,0.4c1,0.8,2.1,1.2,3.3,1.2c0.8,0,1.5-0.3,2-1s0.8-1.4,0.8-2.3V108z M46.8,101.5c0,0.7,0.3,1.3,0.8,1.9
	c0.6,0.6,1.2,0.8,2,0.8c0.8,0,1.4-0.3,2-0.8c0.5-0.6,0.8-1.2,0.8-1.9c0-0.7-0.2-1.3-0.7-1.9c-0.5-0.6-1.2-0.9-2-0.9s-1.5,0.3-2,0.9
	C47,100.1,46.8,100.8,46.8,101.5z M76.8,99.7c0,1.3-0.3,2.3-1,2.9c-0.6,0.6-1.4,0.9-2.1,0.9H66c0,0.6,0.4,1.1,1.1,1.5
	s1.4,0.6,2.1,0.6c1.2,0,2.2-0.1,2.9-0.4l0.4-0.1c0.5-0.2,0.9-0.4,1.3-0.4c0.7,0,1.3,0.5,1.8,1.4c0.3,0.6,0.4,1.1,0.4,1.5
	c0,1.9-2.3,2.8-6.8,2.8c-1.6,0-3-0.3-4.2-0.8c-1.2-0.6-2.2-1.3-2.8-2.2c-1.3-1.7-2-3.7-2-5.8c0-2.7,0.9-4.8,2.6-6.4
	c1.7-1.6,3.9-2.4,6.5-2.4c3,0,5.1,1,6.5,3.1C76.4,97.1,76.8,98.3,76.8,99.7z M70,100.6c0.8,0,1.2-0.3,1.2-1c0-0.5-0.2-0.9-0.6-1.2
	c-0.4-0.3-0.9-0.4-1.6-0.4c-0.7,0-1.4,0.3-2,0.9c-0.7,0.6-1,1.2-1,1.8H70z M96.3,93.2c2.1,0,3.9,0.8,5.3,2.5c1.4,1.6,2.1,3.6,2.1,6
	v5.6c0,0.5,0,0.9-0.1,1.1c0,0.2-0.1,0.5-0.3,0.8c-0.3,0.6-1.1,0.9-2.5,0.9c-1.5,0-2.4-0.4-2.6-1.2c-0.1-0.4-0.2-0.9-0.2-1.6v-5.6
	c0-0.9-0.3-1.6-0.8-2c-0.5-0.5-1.2-0.7-2-0.7c-0.8,0-1.5,0.3-2,0.8c-0.5,0.5-0.8,1.2-0.8,2v5.7c0,0.5,0,0.9-0.1,1.1
	c0,0.2-0.1,0.5-0.3,0.8c-0.3,0.6-1.1,0.9-2.5,0.9c-1.3,0-2.2-0.3-2.5-0.9c-0.1-0.3-0.2-0.6-0.3-0.8c0-0.3,0-0.6,0-1.1V95.9
	c0-0.5,0-0.8,0-1.1c0-0.3,0.1-0.5,0.3-0.8c0.3-0.5,1.1-0.8,2.5-0.8c1.3,0,2.1,0.2,2.4,0.7c0.2,0.4,0.3,0.8,0.3,1.3
	c0.1-0.1,0.3-0.4,0.6-0.6c0.3-0.3,0.6-0.5,0.9-0.7C94.6,93.5,95.4,93.2,96.3,93.2z M105.9,101.7c0-2.6,0.9-4.7,2.7-6.3
	s3.8-2.5,6.1-2.5c2.3,0,4.3,0.8,6.1,2.5c1.8,1.6,2.7,3.7,2.7,6.3c0,1.8-0.5,3.3-1.4,4.7c-0.9,1.4-2,2.4-3.4,3c-1.3,0.6-2.7,1-4.1,1
	c-1.4,0-2.8-0.3-4.1-1c-1.3-0.7-2.4-1.7-3.4-3.1C106.3,104.9,105.9,103.4,105.9,101.7z M112.6,104c0.7,0.5,1.4,0.8,2.1,0.8
	s1.4-0.3,2.1-0.8c0.7-0.5,1.1-1.3,1.1-2.4s-0.3-1.8-1-2.3c-0.7-0.5-1.4-0.8-2.1-0.8s-1.5,0.3-2.1,0.8c-0.7,0.5-1,1.3-1,2.4
	C111.5,102.7,111.9,103.5,112.6,104z M134.9,98.9l-2.1-0.1v4.4c0,0.6,0.1,1,0.3,1.2c0.2,0.3,0.5,0.4,1,0.4c0.5,0,0.9,0,1.2,0.1
	c0.3,0,0.6,0.1,0.9,0.3c0.5,0.3,0.7,1,0.7,2.1c0,1.3-0.3,2.2-0.9,2.5c-0.3,0.1-0.6,0.2-0.9,0.3c-0.2,0-0.6,0-1.1,0
	c-2.2,0-3.9-0.5-5.1-1.5c-1.2-1-1.7-2.7-1.7-5.1v-4.7c-0.4,0.1-0.8,0.1-1.3,0.1c-0.5,0-0.9-0.2-1.2-0.5c-0.3-0.4-0.4-1-0.4-1.9
	s0.1-1.5,0.2-1.9c0.1-0.4,0.3-0.7,0.4-0.9c0.3-0.3,0.8-0.4,1.3-0.4l1.1,0.1v-3.3c0-0.5,0-0.9,0-1.1c0-0.2,0.1-0.5,0.3-0.8
	c0.3-0.5,1.1-0.8,2.5-0.8c1.4,0,2.3,0.4,2.6,1.2c0.1,0.3,0.2,0.9,0.2,1.6v3.1c0.9-0.1,1.6-0.1,2.1-0.1c0.5,0,0.9,0,1.1,0.1
	c0.3,0,0.5,0.1,0.9,0.3c0.6,0.3,0.8,1.1,0.8,2.5c0,1.3-0.3,2.2-0.9,2.5c-0.3,0.1-0.6,0.2-0.9,0.3C135.7,98.9,135.4,98.9,134.9,98.9z
	 M157.4,93.3c1.5,0,2.3,0.4,2.6,1.2c0.1,0.4,0.2,0.9,0.2,1.6c0,0.7-0.1,1.2-0.2,1.6c-0.1,0.4-0.3,0.7-0.6,0.8
	c-0.4,0.3-1.1,0.4-2,0.4l-2-0.1v8.6c0,0.8-0.1,1.4-0.3,1.8c-0.2,0.4-0.5,0.6-0.9,0.8c-0.4,0.1-0.9,0.2-1.6,0.2
	c-0.7,0-1.2-0.1-1.6-0.2c-0.4-0.1-0.7-0.4-0.8-0.7c-0.2-0.3-0.3-0.6-0.3-0.9c0-0.3,0-0.6,0-1.1v-8.5h-1.2c-0.6,0-1-0.2-1.2-0.4
	c-0.4-0.4-0.6-1.2-0.6-2.3c0-1.7,0.6-2.6,1.9-2.6h1.1v-1.7c0-1.6,0.6-3.1,1.8-4.4c1.2-1.3,2.9-2,5.1-2c0.5,0,0.9,0,1.1,0.1
	c0.3,0,0.5,0.1,0.9,0.3c0.6,0.3,0.9,1.1,0.9,2.5c0,1-0.2,1.8-0.5,2.2c-0.3,0.3-0.8,0.5-1.4,0.6c-0.2,0-0.5,0-0.9,0
	c-0.8,0-1.2,0.3-1.2,0.8v1.8L157.4,93.3z M160.8,101.7c0-2.6,0.9-4.7,2.7-6.3c1.8-1.7,3.8-2.5,6.1-2.5s4.3,0.8,6.1,2.5
	c1.8,1.6,2.7,3.7,2.7,6.3c0,1.8-0.5,3.3-1.4,4.7c-0.9,1.4-2,2.4-3.4,3c-1.3,0.6-2.7,1-4.1,1s-2.8-0.3-4.1-1
	c-1.3-0.7-2.4-1.7-3.4-3.1C161.3,104.9,160.8,103.4,160.8,101.7z M167.5,104c0.7,0.5,1.4,0.8,2.1,0.8c0.7,0,1.4-0.3,2.1-0.8
	c0.7-0.5,1.1-1.3,1.1-2.4s-0.3-1.8-1-2.3c-0.7-0.5-1.4-0.8-2.1-0.8s-1.5,0.3-2.1,0.8c-0.7,0.5-1,1.3-1,2.4
	C166.5,102.7,166.8,103.5,167.5,104z M188,110c-2.2,0-3.9-0.8-5.4-2.4c-1.4-1.6-2.1-3.6-2.1-6V96c0-0.5,0-0.9,0-1.1
	c0-0.2,0.1-0.5,0.3-0.8c0.3-0.6,1.1-0.9,2.5-0.9c1.5,0,2.4,0.4,2.6,1.2c0.1,0.3,0.2,0.9,0.2,1.6v5.6c0,0.9,0.2,1.6,0.7,2
	c0.5,0.5,1.2,0.7,2,0.7c0.9,0,1.5-0.3,2-0.8c0.5-0.5,0.8-1.2,0.8-2V96c0-0.5,0-0.9,0-1.1c0-0.3,0.2-0.5,0.3-0.9
	c0.3-0.6,1.1-0.8,2.5-0.8c1.3,0,2.2,0.3,2.5,0.9c0.2,0.3,0.2,0.6,0.3,0.9c0,0.2,0.1,0.6,0.1,1.1v11.3c0,0.5,0,0.8-0.1,1.1
	c0,0.2-0.1,0.5-0.3,0.8c-0.3,0.6-1.1,0.8-2.5,0.8c-1.3,0-2.1-0.3-2.4-0.8c-0.2-0.4-0.3-0.8-0.3-1.3c-0.1,0.1-0.3,0.4-0.6,0.6
	c-0.3,0.3-0.6,0.5-0.9,0.7C189.6,109.8,188.9,110,188,110z M209.3,93.2c2.1,0,3.9,0.8,5.3,2.5c1.4,1.6,2.1,3.6,2.1,6v5.6
	c0,0.5,0,0.9-0.1,1.1c0,0.2-0.1,0.5-0.3,0.8c-0.3,0.6-1.1,0.9-2.5,0.9c-1.5,0-2.4-0.4-2.6-1.2c-0.1-0.4-0.2-0.9-0.2-1.6v-5.6
	c0-0.9-0.3-1.6-0.8-2c-0.5-0.5-1.2-0.7-2-0.7c-0.8,0-1.5,0.3-2,0.8c-0.5,0.5-0.8,1.2-0.8,2v5.7c0,0.5,0,0.9-0.1,1.1
	c0,0.2-0.1,0.5-0.3,0.8c-0.3,0.6-1.1,0.9-2.5,0.9c-1.3,0-2.2-0.3-2.5-0.9c-0.1-0.3-0.2-0.6-0.3-0.8c0-0.3,0-0.6,0-1.1V95.9
	c0-0.5,0-0.8,0-1.1c0-0.3,0.1-0.5,0.3-0.8c0.3-0.5,1.1-0.8,2.5-0.8c1.3,0,2.1,0.2,2.4,0.7c0.2,0.4,0.3,0.8,0.3,1.3
	c0.1-0.1,0.3-0.4,0.6-0.6c0.3-0.3,0.6-0.5,0.9-0.7C207.6,93.5,208.4,93.2,209.3,93.2z M230.6,86.2c0.2-0.3,0.5-0.5,0.9-0.7
	c0.4-0.1,0.9-0.2,1.6-0.2c0.7,0,1.2,0.1,1.6,0.2c0.4,0.1,0.7,0.4,0.8,0.7c0.2,0.3,0.3,0.6,0.3,0.9c0,0.2,0.1,0.6,0.1,1.1v19.1
	c0,0.5,0,0.9-0.1,1.1c0,0.2-0.1,0.5-0.3,0.8c-0.3,0.6-1.2,0.9-2.7,0.9c-1.5,0-2.3-0.5-2.5-1.6c-0.9,1-2.1,1.5-3.7,1.5
	c-1.9,0-3.7-0.8-5.2-2.5c-1.6-1.7-2.4-3.6-2.4-5.9c0-2.2,0.8-4.2,2.4-5.9c1.6-1.7,3.3-2.5,5.2-2.5c1.6,0,2.8,0.5,3.7,1.6v-6.7
	c0-0.5,0-0.9,0-1.1C230.4,86.8,230.5,86.5,230.6,86.2z M225.4,103.6c0.6,0.6,1.2,0.9,2,0.9c0.8,0,1.4-0.3,2-0.9
	c0.5-0.6,0.8-1.2,0.8-1.9c0-0.7-0.3-1.4-0.8-2c-0.5-0.6-1.2-0.9-2-0.9c-0.9,0-1.5,0.3-2,0.9c-0.5,0.6-0.8,1.2-0.8,1.9
	S224.9,103,225.4,103.6z"/>
<linearGradient id="SVGID_1_" gradientUnits="userSpaceOnUse" x1="123.2863" y1="112.5259" x2="123.3443" y2="57.3458" gradientTransform="matrix(1 0 0 -1 0 127)">
	<stop  offset="0" style="stop-color:#2558D5"/>
	<stop  offset="1" style="stop-color:#1673DF"/>
</linearGradient>
<path class="st1" d="M136.1,52.7l1.1-1.3c1.4-1.4,2.5-2.1,3.1-2.3c1.5-0.4,3.4,0.6,5.8,2.9c1.5,1.4,2.3,2.7,2.6,3.7
	c0.2,1,0.1,1.9-0.4,2.8c-0.5,0.8-1.1,1.6-1.8,2.4c-0.7,0.7-1.5,1.4-2.1,2.1c-0.7,0.7-2.2,1.7-4.4,3.1c-2.3,1.4-4.6,2.3-6.9,2.9
	c-2.3,0.6-4.7,0.8-7.2,0.8c-2.5,0-5.2-0.5-8-1.3c-2.8-0.8-5.5-2-8-3.6c-2.5-1.6-4.7-3.8-6.8-6.7c-2.1-2.9-3.5-6.2-4.4-10
	c-0.9-3.8-1.1-7.3-0.6-10.7c0.5-3.4,1.5-6.3,3-8.7c1.5-2.5,3.3-4.7,5.5-6.6c4.1-3.7,8.5-6.2,13.3-7.3c2.3-0.5,4.7-0.7,7.2-0.6
	c2.5,0.1,4.5,0.4,5.8,0.9l2,0.6c1,0.3,1.8,0.6,2.3,0.8c1.5,0.7,2.4,1.7,2.7,3c0.3,1.3,0.1,2.7-0.6,4.4c-1.3,3.1-2.6,4.8-4.1,5.1
	c-0.9,0.2-2.2,0-4.1-0.7c-2.4-1.1-5.3-1.3-8.7-0.5c-3.1,0.8-6,2.6-8.5,5.5c-1.2,1.4-2,3.2-2.5,5.3c-0.5,2.2-0.5,4.4,0.1,6.9
	c0.6,2.4,1.6,4.5,3,6.2s3,2.9,4.8,3.7c3.5,1.4,6.8,1.7,10,1c1.5-0.4,2.9-0.9,4.1-1.6C134.7,53.9,135.6,53.2,136.1,52.7L136.1,52.7z"
	/>
<linearGradient id="SVGID_00000031170161684094556790000014388813687524213910_" gradientUnits="userSpaceOnUse" x1="120.499" y1="93.1218" x2="120.504" y2="87.6066" gradientTransform="matrix(1 0 0 -1 0 127)">
	<stop  offset="0" style="stop-color:#2558D5"/>
	<stop  offset="1" style="stop-color:#1673DF"/>
</linearGradient>
<path style="fill:url(#SVGID_00000031170161684094556790000014388813687524213910_);" d="M120.5,39.4c1.5,0,2.8-1.2,2.8-2.8
	c0-1.5-1.2-2.8-2.8-2.8c-1.5,0-2.8,1.2-2.8,2.8C117.7,38.2,119,39.4,120.5,39.4z"/>
<linearGradient id="SVGID_00000088847015162740108460000007276395919082917822_" gradientUnits="userSpaceOnUse" x1="131.765" y1="95.6169" x2="131.77" y2="90.1017" gradientTransform="matrix(1 0 0 -1 0 127)">
	<stop  offset="0" style="stop-color:#2558D5"/>
	<stop  offset="1" style="stop-color:#1673DF"/>
</linearGradient>
<path style="fill:url(#SVGID_00000088847015162740108460000007276395919082917822_);" d="M131.8,36.9c1.5,0,2.8-1.2,2.8-2.8
	c0-1.5-1.2-2.8-2.8-2.8c-1.5,0-2.8,1.2-2.8,2.8C129,35.7,130.2,36.9,131.8,36.9z"/>
<linearGradient id="SVGID_00000072964427912449403480000008518102096077509003_" gradientUnits="userSpaceOnUse" x1="127.4685" y1="77.3235" x2="127.4645" y2="85.9514" gradientTransform="matrix(1 0 0 -1 0 127)">
	<stop  offset="0" style="stop-color:#2558D5"/>
	<stop  offset="1" style="stop-color:#1673DF"/>
</linearGradient>
<path style="fill:none;stroke:url(#SVGID_00000072964427912449403480000008518102096077509003_);stroke-width:4;stroke-linecap:round;stroke-miterlimit:10;" d="
	M137,45.4c0,0-3.7-5.8-11-4c-6.5,1.6-8,8.4-8,8.4"/>
</svg>
