<svg width="124" height="57" viewBox="0 0 124 57" fill="none" xmlns="http://www.w3.org/2000/svg">
<path d="M2.89135 37.6829C2.89135 37.6829 15.4616 29.4681 17.8279 27.851C20.1942 26.2338 23.4284 26.1072 26.0427 26.2338C28.657 26.3605 46.5797 27.2284 47.8249 27.479C49.07 27.7296 52.3069 27.8536 52.0563 31.8344C51.8057 35.8152 49.07 36.5644 47.5743 36.6883C46.0785 36.8123 33.3843 36.8123 33.3843 36.8123L51.8057 42.7875L76.2021 33.3275C76.2021 33.3275 80.2964 32.1826 81.5626 34.6623C82.8289 37.1421 82.9238 39.6772 80.5575 41.1704C78.1912 42.6635 57.0316 54.8617 55.7891 55.7323C54.5466 56.6028 52.8028 57.1014 50.3125 56.7268C47.8222 56.3522 18.4478 51.3742 18.4478 51.3742C18.4478 51.3742 16.5801 52.4954 14.0924 53.242C11.6048 53.9885 6.24956 55.9802 2.01817 49.7571C-2.21323 43.534 1.2716 39.176 2.88872 37.6829L2.89135 37.6829Z" fill="white"/>
<path d="M104.73 7.00771C103.242 3.22742 99.43 -0.790295 93.505 0.135652C86.1739 1.28056 85.7571 8.27924 86.5565 11.6216C88.4664 19.6069 97.4436 30.713 104.585 30.713C111.726 30.713 120.168 22.0207 123.185 12.8879C124.913 7.65931 123.17 2.19595 118.11 0.774055C111.275 -1.14643 107.595 2.65497 104.73 7.00771Z" fill="white"/>
<path d="M63.0911 22.9209L81.2407 22.9209L81.2407 12.1182L63.0911 12.1182L63.0911 22.9209Z" fill="white"/>
<path d="M48.8247 17.341L57.6647 12.2364L66.5048 7.13184L66.5048 17.341L66.5048 27.5475L57.6647 22.4429L48.8247 17.341Z" fill="white"/>
</svg>
