<?xml version="1.0" encoding="UTF-8"?>
<svg id="Layer_2" data-name="Layer 2" xmlns="http://www.w3.org/2000/svg" viewBox="0 0 123.83 56.85">
  <defs>
    <style>
      .cls-1 {
        fill: #fff;
      }
    </style>
  </defs>
  <g id="Layer_1-2" data-name="Layer 1">
    <path class="cls-1" d="m2.89,37.68s12.57-8.21,14.94-9.83c2.37-1.62,5.6-1.74,8.21-1.62,2.61.13,20.54.99,21.78,1.25,1.25.25,4.48.37,4.23,4.36-.25,3.98-2.99,4.73-4.48,4.85-1.5.12-14.19.12-14.19.12l18.42,5.98,24.4-9.46s4.09-1.14,5.36,1.33c1.27,2.48,1.36,5.01-1.01,6.51-2.37,1.49-23.53,13.69-24.77,14.56-1.24.87-2.99,1.37-5.48.99s-31.86-5.35-31.86-5.35c0,0-1.87,1.12-4.36,1.87-2.49.75-7.84,2.74-12.07-3.48-4.23-6.22-.75-10.58.87-12.07h0Z"/>
    <path class="cls-1" d="m104.73,7.01c-1.49-3.78-5.3-7.8-11.23-6.87-7.33,1.14-7.75,8.14-6.95,11.49,1.91,7.99,10.89,19.09,18.03,19.09s15.58-8.69,18.6-17.83c1.73-5.23-.01-10.69-5.07-12.11-6.83-1.92-10.51,1.88-13.38,6.23Z"/>
    <path class="cls-1" d="m63.09,22.92h18.15v-10.8h-18.15v10.8Z"/>
    <path class="cls-1" d="m48.82,17.34l8.84-5.1,8.84-5.1v20.42l-8.84-5.1-8.84-5.1Z"/>
  </g>
</svg>