<svg width="155" height="80" viewBox="0 0 155 80" fill="none" xmlns="http://www.w3.org/2000/svg">
<path d="M21.4862 70.8562L22.3049 70.2693C23.3351 69.6673 24.0602 69.3633 24.4861 69.3633C25.4257 69.3633 26.4408 70.2091 27.5284 71.8976C28.1931 72.954 28.5284 73.7997 28.5284 74.4318C28.5284 75.0639 28.323 75.5936 27.9151 76.0149C27.5073 76.4393 27.0299 76.8155 26.4831 77.1466C25.9393 77.4777 25.4166 77.7967 24.9151 78.0977C24.4167 78.3987 23.3925 78.793 21.8487 79.2745C20.3049 79.7561 18.8125 79.9999 17.3744 79.9999C15.9364 79.9999 14.4832 79.8103 13.015 79.434C11.5467 79.0578 10.0331 78.4228 8.47121 77.5349C6.91231 76.644 5.51052 75.5605 4.26884 74.2753C3.02716 72.9931 2.00602 71.3498 1.2024 69.3423C0.398787 67.3348 0 65.1557 0 62.802C0 60.4484 0.392745 58.3145 1.18126 56.3972C1.96977 54.483 2.9758 52.8969 4.20237 51.6448C5.42894 50.3927 6.83074 49.3453 8.40474 48.4996C11.3715 46.8713 14.3563 46.0557 17.3533 46.0557C18.7762 46.0557 20.2233 46.2754 21.6916 46.7118C23.1599 47.1482 24.2716 47.5937 25.0299 48.0451L26.1206 48.6802C26.6644 49.0113 27.0903 49.2851 27.3925 49.4958C28.181 50.1309 28.5737 50.8472 28.5737 51.6448C28.5737 52.4424 28.2565 53.2821 27.619 54.155C26.4378 55.7832 25.3774 56.5989 24.4378 56.5989C23.894 56.5989 23.1206 56.2678 22.1206 55.6027C20.8487 54.5763 19.1539 54.0647 17.0331 54.0647C15.0633 54.0647 13.1267 54.7449 11.2174 56.1023C10.308 56.7674 9.55277 57.7005 8.94552 58.9074C8.33828 60.1143 8.03617 61.4807 8.03617 63.0037C8.03617 64.5266 8.33828 65.8931 8.94552 67.1C9.54975 68.3069 10.3232 69.258 11.2627 69.9502C13.1086 71.2776 15.0331 71.9427 17.03 71.9427C17.9696 71.9427 18.8548 71.8223 19.6886 71.5815C20.5224 71.3408 21.1206 71.1 21.4832 70.8562H21.4862Z" fill="#F26749"/>
<path d="M33.7489 58.6848C36.2927 56.3311 39.199 55.1543 42.4709 55.1543C45.7428 55.1543 48.634 56.3251 51.1475 58.6607C53.6611 60.9993 54.9179 63.979 54.9179 67.5967C54.9179 70.1008 54.2653 72.3251 52.9662 74.2724C51.6641 76.2197 50.0811 77.6523 48.2201 78.5703C46.3591 79.4913 44.4286 79.9518 42.4286 79.9518C40.4286 79.9518 38.4921 79.4612 36.6129 78.48C34.7338 77.4989 33.1538 76.0511 31.8668 74.1369C30.5798 72.2227 29.9363 70.0557 29.9363 67.6418C29.9363 64.0211 31.2082 61.0354 33.752 58.6818L33.7489 58.6848ZM39.4256 70.8804C40.3954 71.6208 41.3772 71.988 42.3772 71.988C43.3772 71.988 44.3772 71.6117 45.3742 70.8563C46.3742 70.1038 46.8727 68.9872 46.8727 67.5064C46.8727 66.0256 46.4014 64.927 45.4648 64.2017C44.5253 63.4763 43.5132 63.1151 42.4226 63.1151C41.3319 63.1151 40.3168 63.4914 39.3803 64.2468C38.4407 65.0023 37.9724 66.1099 37.9724 67.5726C37.9724 69.0354 38.4558 70.1369 39.4256 70.8774V70.8804Z" fill="#F26749"/>
<path d="M79.0414 70.8562L79.8601 70.2693C80.8903 69.6673 81.6153 69.3633 82.0413 69.3633C82.9809 69.3633 83.993 70.2091 85.0836 71.8976C85.7482 72.954 86.0836 73.7997 86.0836 74.4318C86.0836 75.0639 85.8781 75.5936 85.4703 76.0149C85.0624 76.4393 84.5851 76.8155 84.0383 77.1466C83.4945 77.4777 82.9718 77.7967 82.4703 78.0977C81.9718 78.3987 80.9477 78.793 79.4039 79.2745C77.8601 79.7561 76.3677 79.9999 74.9296 79.9999C73.4916 79.9999 72.0384 79.8103 70.5701 79.434C69.1019 79.0578 67.5883 78.4228 66.0264 77.5349C64.4675 76.644 63.0657 75.5605 61.824 74.2753C60.5823 72.9931 59.5612 71.3498 58.7576 69.3423C57.954 67.3348 57.5552 65.1557 57.5552 62.802C57.5552 60.4484 57.9479 58.3145 58.7364 56.3972C59.5249 54.483 60.531 52.8969 61.7575 51.6448C62.9841 50.3927 64.3859 49.3453 65.9599 48.4996C68.9267 46.8713 71.9115 46.0557 74.9085 46.0557C76.3314 46.0557 77.7785 46.2754 79.2468 46.7118C80.7151 47.1482 81.8268 47.5937 82.5851 48.0451L83.6757 48.6802C84.2195 49.0113 84.6455 49.2851 84.9476 49.4958C85.7361 50.1309 86.1289 50.8472 86.1289 51.6448C86.1289 52.4424 85.8117 53.2821 85.1742 54.155C83.993 55.7832 82.9326 56.5989 81.993 56.5989C81.4492 56.5989 80.6758 56.2678 79.6758 55.6027C78.4039 54.5763 76.7091 54.0647 74.5882 54.0647C72.6185 54.0647 70.6819 54.7449 68.7726 56.1023C67.8632 56.7674 67.1079 57.7005 66.5007 58.9074C65.8935 60.1143 65.5913 61.4807 65.5913 63.0037C65.5913 64.5266 65.8935 65.8931 66.5007 67.1C67.1049 68.3069 67.8783 69.258 68.8179 69.9502C70.6638 71.2776 72.5883 71.9427 74.5852 71.9427C75.5248 71.9427 76.41 71.8223 77.2438 71.5815C78.0776 71.3408 78.6758 71.1 79.0383 70.8562H79.0414Z" fill="url(#paint0_linear_1178_1357)"/>
<path d="M102.449 58.8141C102.839 57.2399 104.074 56.5959 106.165 56.8758C107.28 57.0263 108.098 57.2219 108.618 57.4687C109.138 57.7125 109.476 58.0616 109.633 58.5191C109.79 58.9766 109.866 59.3709 109.866 59.7049C109.866 60.039 109.818 60.5326 109.73 61.1888L107.7 76.1503C107.612 76.8065 107.521 77.2941 107.434 77.6161C107.346 77.9382 107.174 78.2993 106.914 78.6996C106.413 79.3859 105.383 79.6266 103.824 79.4159C102.265 79.2053 101.247 78.8742 100.769 78.4167C100.292 77.9592 100.059 77.3573 100.074 76.6048C98.8116 77.9743 96.9415 78.4889 94.4672 78.1579C91.9929 77.8238 89.8479 76.3911 88.0383 73.8539C86.2256 71.3167 85.5217 68.5597 85.9265 65.58C86.3314 62.6034 87.7513 60.1384 90.1863 58.188C92.6213 56.2377 95.1107 55.4341 97.6575 55.7772C98.6303 55.9066 99.4944 56.1986 100.25 56.647C101.005 57.0985 101.519 57.4928 101.793 57.8359C102.068 58.176 102.286 58.504 102.446 58.8171L102.449 58.8141ZM93.431 66.6545C93.3041 67.5936 93.5609 68.4935 94.2014 69.3483C94.8418 70.203 95.6908 70.7027 96.7512 70.8441C97.8086 70.9856 98.7421 70.7207 99.5457 70.0465C100.349 69.3723 100.818 68.5717 100.941 67.6447C101.068 66.7177 100.848 65.8118 100.283 64.9239C99.7179 64.036 98.872 63.5153 97.7421 63.3618C96.6122 63.2083 95.6424 63.4852 94.8328 64.1895C94.0231 64.8938 93.5548 65.7155 93.428 66.6545H93.431Z" fill="url(#paint1_linear_1178_1357)"/>
<path d="M129.189 54.3903C129.796 54.5739 130.304 54.893 130.709 55.3504C131.113 55.8079 131.322 56.5423 131.334 57.5596C131.346 58.5769 131.056 59.6935 130.467 60.9065C129.875 62.1224 129.005 62.7364 127.857 62.7485C127.283 62.7545 126.73 62.6341 126.201 62.3873C125.672 62.1405 124.977 62.0201 124.113 62.0321C123.252 62.0412 122.449 62.3542 121.709 62.9682C120.965 63.5822 120.6 64.3166 120.612 65.1743L120.733 75.1848C120.742 75.9162 120.724 76.464 120.681 76.8312C120.639 77.1984 120.491 77.6197 120.243 78.1013C119.775 78.935 118.536 79.3624 116.527 79.3865C114.996 79.4046 113.893 79.1487 113.216 78.616C112.7 78.1766 112.404 77.4994 112.331 76.5754C112.328 76.2593 112.322 75.7958 112.313 75.1939L112.108 58.4595C112.098 57.7282 112.117 57.1804 112.159 56.8132C112.201 56.449 112.334 56.0397 112.552 55.5912C112.987 54.7274 114.225 54.285 116.268 54.2579C118.183 54.2338 119.382 54.586 119.869 55.3113C120.225 55.817 120.407 56.3376 120.416 56.8794C120.573 56.6567 120.799 56.3828 121.098 56.0607C121.397 55.7387 122.038 55.3023 123.02 54.7485C124.002 54.1977 124.869 53.9148 125.618 53.9058C126.367 53.8967 126.999 53.9298 127.509 54.0021C128.02 54.0773 128.582 54.2037 129.189 54.3873V54.3903Z" fill="url(#paint2_linear_1178_1357)"/>
<path d="M154.98 64.9902C154.853 66.8653 154.288 68.2227 153.294 69.0564C152.297 69.8931 151.234 70.2724 150.104 70.1941L139.225 69.4537C139.168 70.3085 139.621 71.0579 140.594 71.705C141.563 72.3521 142.554 72.7103 143.563 72.7795C145.34 72.8999 146.745 72.8126 147.778 72.5146L148.294 72.3672C149.053 72.0812 149.675 71.9548 150.165 71.9879C151.143 72.0541 151.938 72.7976 152.548 74.2182C152.89 75.0699 153.041 75.7832 153.001 76.3611C152.814 79.0759 149.464 80.2106 142.944 79.7652C140.678 79.6117 138.693 79.085 136.986 78.1881C135.28 77.2911 133.98 76.1685 133.089 74.8201C131.331 72.2197 130.554 69.3935 130.763 66.3446C131.026 62.5041 132.482 59.5154 135.135 57.3845C137.787 55.2536 140.977 54.3115 144.714 54.5674C148.968 54.8563 151.986 56.5628 153.772 59.687C154.702 61.3424 155.104 63.1091 154.977 64.9842L154.98 64.9902ZM145.201 65.6794C146.364 65.7577 146.977 65.3092 147.047 64.3341C147.095 63.6328 146.866 63.0519 146.358 62.5884C145.85 62.1249 145.101 61.86 144.107 61.7908C143.113 61.7246 142.098 62.0617 141.062 62.8021C140.026 63.5425 139.479 64.3732 139.415 65.2852L145.201 65.6794Z" fill="url(#paint3_linear_1178_1357)"/>
<path d="M100.464 29.4389L101.159 28.6323C102.065 27.7594 102.739 27.2689 103.174 27.1635C104.138 26.9318 105.392 27.5488 106.929 29.0145C107.875 29.9355 108.428 30.7211 108.585 31.3712C108.742 32.0213 108.663 32.6142 108.349 33.1499C108.035 33.6857 107.639 34.1913 107.162 34.6669C106.685 35.1424 106.225 35.5969 105.787 36.0303C105.349 36.4637 104.398 37.1198 102.929 37.9957C101.464 38.8715 99.9898 39.4885 98.5125 39.8437C97.0352 40.1988 95.4944 40.3644 93.8932 40.3403C92.289 40.3162 90.576 40.0393 88.7543 39.5096C86.9296 38.9799 85.2226 38.2124 83.6275 37.2011C82.0323 36.1898 80.5731 34.7542 79.2499 32.8911C77.9266 31.0281 76.972 28.8881 76.3859 26.4713C75.7998 24.0544 75.6729 21.764 76.0052 19.603C76.3375 17.4419 76.978 15.5638 77.9266 13.9777C78.8753 12.3885 80.0535 10.9679 81.4613 9.70983C84.1048 7.30502 86.9658 5.73091 90.0473 4.99051C91.5096 4.63836 93.0473 4.50894 94.6666 4.59322C96.2829 4.6805 97.5367 4.86109 98.4279 5.141L99.7059 5.52324C100.349 5.73091 100.851 5.90548 101.213 6.04694C102.18 6.50442 102.763 7.14249 102.963 7.96416C103.162 8.78583 103.044 9.72488 102.606 10.7783C101.796 12.7437 100.911 13.8422 99.9475 14.074C99.3886 14.2094 98.5125 14.059 97.3192 13.6225C95.7573 12.8821 93.8872 12.7738 91.709 13.2975C89.6878 13.7821 87.8661 14.9589 86.2438 16.8249C85.4764 17.7309 84.9296 18.8806 84.6093 20.2681C84.2861 21.6586 84.3163 23.1334 84.6939 24.6985C85.0716 26.2636 85.7241 27.5909 86.6456 28.6804C87.567 29.77 88.5972 30.5555 89.7331 31.0371C91.9597 31.946 94.1017 32.1507 96.153 31.6571C97.1168 31.4253 97.9959 31.0822 98.7935 30.6278C99.588 30.1733 100.144 29.779 100.455 29.4419L100.464 29.4389Z" fill="url(#paint4_linear_1178_1357)"/>
<path d="M90.428 20.8578C91.4191 20.8578 92.2225 20.0574 92.2225 19.07C92.2225 18.0827 91.4191 17.2822 90.428 17.2822C89.4369 17.2822 88.6334 18.0827 88.6334 19.07C88.6334 20.0574 89.4369 20.8578 90.428 20.8578Z" fill="url(#paint5_linear_1178_1357)"/>
<path d="M97.6817 19.2504C98.6728 19.2504 99.4763 18.45 99.4763 17.4626C99.4763 16.4752 98.6728 15.6748 97.6817 15.6748C96.6906 15.6748 95.8872 16.4752 95.8872 17.4626C95.8872 18.45 96.6906 19.2504 97.6817 19.2504Z" fill="url(#paint6_linear_1178_1357)"/>
<path d="M88.7876 24.7139C88.7876 24.7139 91.1592 28.437 95.8782 27.3023C100.071 26.294 101.038 21.9238 101.038 21.9238" stroke="url(#paint7_linear_1178_1357)" stroke-width="4" stroke-miterlimit="10" stroke-linecap="round"/>
<path d="M73.3044 26.4625C72.8633 24.6386 72.6277 22.8538 72.5884 21.1172C72.0536 22.3723 70.8059 24.434 68.2289 25.054C64.096 26.0472 61.9752 22.9562 61.8695 22.7997C61.3136 21.9389 60.1625 21.686 59.2924 22.2368C58.4193 22.7876 58.1595 23.9404 58.7154 24.8102C58.8393 25.0058 61.4465 28.9938 66.5643 28.9938C67.3528 28.9938 68.2017 28.8975 69.1081 28.6807C70.8814 28.2534 72.25 27.4287 73.3074 26.4686C73.3074 26.4686 73.3074 26.4656 73.3074 26.4625H73.3044Z" fill="#F26749"/>
<path d="M62.229 19.257C63.4003 19.257 64.3498 18.311 64.3498 17.1441C64.3498 15.9772 63.4003 15.0312 62.229 15.0312C61.0577 15.0312 60.1082 15.9772 60.1082 17.1441C60.1082 18.311 61.0577 19.257 62.229 19.257Z" fill="#F26749"/>
<path d="M70.7968 17.3576C71.9681 17.3576 72.9177 16.4116 72.9177 15.2447C72.9177 14.0778 71.9681 13.1318 70.7968 13.1318C69.6255 13.1318 68.676 14.0778 68.676 15.2447C68.676 16.4116 69.6255 17.3576 70.7968 17.3576Z" fill="#F26749"/>
<path d="M77.0747 34.8956C75.8754 33.2071 74.9056 31.326 74.1654 29.2914L74.0838 29.3847C73.7153 29.785 73.0597 30.2515 72.1201 30.7872C71.1806 31.323 70.1413 31.7263 69.0023 32.0002C66.5764 32.584 64.0507 32.3403 61.4193 31.2658C60.078 30.6969 58.8604 29.7699 57.7728 28.4817C56.6822 27.1966 55.9149 25.6255 55.4677 23.7775C55.0206 21.9295 54.9874 20.1838 55.368 18.5435C55.7487 16.9031 56.3922 15.5487 57.2985 14.4773C59.2139 12.2741 61.3649 10.8866 63.7546 10.3117C66.3256 9.69473 68.5341 9.82114 70.3769 10.694C71.7848 11.2086 72.818 11.3862 73.4796 11.2267C74.6186 10.9528 75.6639 9.6556 76.6186 7.33506C77.1321 6.08902 77.2741 4.98142 77.0385 4.00926C76.8028 3.04012 76.114 2.28466 74.9751 1.74591C74.5461 1.57737 73.9509 1.3727 73.1926 1.12891L71.6851 0.677444C70.6337 0.349379 69.1534 0.132675 67.244 0.0303427C65.3347 -0.0719896 63.516 0.0845186 61.7879 0.499867C58.1505 1.3727 54.7699 3.23274 51.649 6.07397C49.9874 7.55779 48.5947 9.23724 47.4769 11.1153C46.356 12.9904 45.6008 15.2056 45.208 17.7609C44.8153 20.3162 44.9663 23.019 45.6551 25.8723C46.347 28.7255 47.4739 31.2537 49.0358 33.4539C50.5977 35.654 52.3197 37.3515 54.2049 38.5434C56.0871 39.7383 58.1052 40.6472 60.2592 41.2703C62.4133 41.8963 64.4344 42.2244 66.3286 42.2514C68.2199 42.2815 70.0386 42.0859 71.7848 41.6675C73.528 41.2492 75.2681 40.5208 76.9992 39.4855C78.0838 38.8384 78.9297 38.2906 79.54 37.8481C78.679 36.9663 77.8542 35.9821 77.0778 34.8895L77.0747 34.8956Z" fill="#F26749"/>
<defs>
<linearGradient id="paint0_linear_1178_1357" x1="71.3849" y1="46.2877" x2="71.4233" y2="80.0004" gradientUnits="userSpaceOnUse">
<stop stop-color="#2558D5"/>
<stop offset="1" stop-color="#1673DF"/>
</linearGradient>
<linearGradient id="paint1_linear_1178_1357" x1="97.456" y1="55.8628" x2="97.4784" y2="79.4901" gradientUnits="userSpaceOnUse">
<stop stop-color="#2558D5"/>
<stop offset="1" stop-color="#1673DF"/>
</linearGradient>
<linearGradient id="paint2_linear_1178_1357" x1="121.412" y1="54.0785" x2="121.444" y2="79.3877" gradientUnits="userSpaceOnUse">
<stop stop-color="#2558D5"/>
<stop offset="1" stop-color="#1673DF"/>
</linearGradient>
<linearGradient id="paint3_linear_1178_1357" x1="142.477" y1="54.6995" x2="142.502" y2="79.8597" gradientUnits="userSpaceOnUse">
<stop stop-color="#2558D5"/>
<stop offset="1" stop-color="#1673DF"/>
</linearGradient>
<linearGradient id="paint4_linear_1178_1357" x1="91.7187" y1="4.81291" x2="91.7559" y2="40.3431" gradientUnits="userSpaceOnUse">
<stop stop-color="#2558D5"/>
<stop offset="1" stop-color="#1673DF"/>
</linearGradient>
<linearGradient id="paint5_linear_1178_1357" x1="90.3705" y1="17.3067" x2="90.3739" y2="20.8579" gradientUnits="userSpaceOnUse">
<stop stop-color="#2558D5"/>
<stop offset="1" stop-color="#1673DF"/>
</linearGradient>
<linearGradient id="paint6_linear_1178_1357" x1="97.6243" y1="15.6992" x2="97.6277" y2="19.2505" gradientUnits="userSpaceOnUse">
<stop stop-color="#2558D5"/>
<stop offset="1" stop-color="#1673DF"/>
</linearGradient>
<linearGradient id="paint7_linear_1178_1357" x1="94.7169" y1="21.9621" x2="94.7193" y2="27.5175" gradientUnits="userSpaceOnUse">
<stop stop-color="#2558D5"/>
<stop offset="1" stop-color="#1673DF"/>
</linearGradient>
</defs>
</svg>
