<svg width="74" height="39" viewBox="0 0 74 39" fill="none" xmlns="http://www.w3.org/2000/svg">
<path d="M10.12 34.0225L10.5056 33.7442C10.9908 33.4587 11.3323 33.3145 11.5329 33.3145C11.9755 33.3145 12.4536 33.7156 12.9658 34.5164C13.2789 35.0174 13.4368 35.4185 13.4368 35.7183C13.4368 36.0181 13.3401 36.2693 13.148 36.4691C12.9559 36.6704 12.7311 36.8488 12.4735 37.0058C12.2174 37.1628 11.9712 37.3141 11.735 37.4569C11.5002 37.5996 11.0178 37.7866 10.2907 38.015C9.56359 38.2434 8.86066 38.359 8.18334 38.359C7.50602 38.359 6.82158 38.2691 6.13003 38.0907C5.43848 37.9122 4.72559 37.6111 3.98993 37.19C3.25569 36.7675 2.59545 36.2536 2.01062 35.6441C1.42579 35.036 0.944833 34.2566 0.566331 33.3045C0.187828 32.3525 0 31.319 0 30.2028C0 29.0865 0.184982 28.0745 0.55637 27.1652C0.927758 26.2574 1.4016 25.5052 1.97931 24.9113C2.55703 24.3175 3.21727 23.8208 3.95862 23.4197C5.35595 22.6475 6.76182 22.2606 8.17338 22.2606C8.84358 22.2606 9.52517 22.3648 10.2167 22.5718C10.9083 22.7788 11.4319 22.99 11.7891 23.2042L12.3028 23.5053C12.5589 23.6624 12.7595 23.7923 12.9018 23.8922C13.2732 24.1934 13.4582 24.5331 13.4582 24.9113C13.4582 25.2896 13.3088 25.6879 13.0085 26.1018C12.4522 26.874 11.9527 27.2609 11.5102 27.2609C11.254 27.2609 10.8898 27.1039 10.4188 26.7884C9.81972 26.3016 9.02145 26.059 8.02254 26.059C7.09479 26.059 6.18268 26.3816 5.28338 27.0253C4.85508 27.3408 4.49934 27.7833 4.21333 28.3557C3.92732 28.9281 3.78502 29.5761 3.78502 30.2984C3.78502 31.0207 3.92732 31.6687 4.21333 32.2411C4.49792 32.8135 4.86219 33.2646 5.30473 33.5929C6.17414 34.2224 7.08056 34.5378 8.02112 34.5378C8.46366 34.5378 8.88058 34.4807 9.27331 34.3665C9.66604 34.2523 9.94778 34.1382 10.1185 34.0225H10.12Z" fill="#FC6E5F"/>
<path d="M15.8957 28.2486C17.0938 27.1324 18.4627 26.5743 20.0037 26.5743C21.5448 26.5743 22.9065 27.1295 24.0904 28.2372C25.2743 29.3463 25.8662 30.7595 25.8662 32.4752C25.8662 33.6628 25.5589 34.7177 24.947 35.6412C24.3337 36.5648 23.5881 37.2442 22.7116 37.6796C21.835 38.1164 20.9258 38.3348 19.9838 38.3348C19.0418 38.3348 18.1297 38.1021 17.2446 37.6367C16.3596 37.1714 15.6154 36.4848 15.0092 35.577C14.403 34.6692 14.0999 33.6414 14.0999 32.4966C14.0999 30.7794 14.699 29.3635 15.8971 28.2472L15.8957 28.2486ZM18.5694 34.0325C19.0261 34.3837 19.4886 34.5578 19.9596 34.5578C20.4306 34.5578 20.9016 34.3794 21.3712 34.0211C21.8422 33.6643 22.0769 33.1347 22.0769 32.4324C22.0769 31.7301 21.855 31.2091 21.4138 30.8651C20.9713 30.5211 20.4946 30.3498 19.9809 30.3498C19.4673 30.3498 18.9892 30.5282 18.548 30.8865C18.1055 31.2448 17.885 31.7701 17.885 32.4638C17.885 33.1575 18.1126 33.68 18.5694 34.0311V34.0325Z" fill="#FC6E5F"/>
<path d="M37.2284 34.0225L37.614 33.7442C38.0993 33.4587 38.4408 33.3145 38.6414 33.3145C39.0839 33.3145 39.5606 33.7156 40.0743 34.5164C40.3873 35.0174 40.5453 35.4185 40.5453 35.7183C40.5453 36.0181 40.4485 36.2693 40.2564 36.4691C40.0643 36.6704 39.8395 36.8488 39.582 37.0058C39.3258 37.1628 39.0797 37.3141 38.8435 37.4569C38.6087 37.5996 38.1263 37.7866 37.3992 38.015C36.672 38.2434 35.9691 38.359 35.2918 38.359C34.6145 38.359 33.93 38.2691 33.2385 38.0907C32.5469 37.9122 31.834 37.6111 31.0984 37.19C30.3641 36.7675 29.7039 36.2536 29.1191 35.6441C28.5342 35.036 28.0533 34.2566 27.6748 33.3045C27.2963 32.3525 27.1085 31.319 27.1085 30.2028C27.1085 29.0865 27.2934 28.0745 27.6648 27.1652C28.0362 26.2574 28.5101 25.5052 29.0878 24.9113C29.6655 24.3175 30.3257 23.8208 31.0671 23.4197C32.4644 22.6475 33.8703 22.2606 35.2818 22.2606C35.952 22.2606 36.6336 22.3648 37.3252 22.5718C38.0167 22.7788 38.5404 22.99 38.8975 23.2042L39.4112 23.5053C39.6673 23.6624 39.868 23.7923 40.0103 23.8922C40.3817 24.1934 40.5666 24.5331 40.5666 24.9113C40.5666 25.2896 40.4172 25.6879 40.117 26.1018C39.5606 26.874 39.0612 27.2609 38.6186 27.2609C38.3625 27.2609 37.9982 27.1039 37.5272 26.7884C36.9282 26.3016 36.1299 26.059 35.131 26.059C34.2032 26.059 33.2911 26.3816 32.3918 27.0253C31.9635 27.3408 31.6078 27.7833 31.3218 28.3557C31.0358 28.9281 30.8935 29.5761 30.8935 30.2984C30.8935 31.0207 31.0358 31.6687 31.3218 32.2411C31.6064 32.8135 31.9706 33.2646 32.4132 33.5929C33.2826 34.2224 34.189 34.5378 35.1296 34.5378C35.5721 34.5378 35.989 34.4807 36.3818 34.3665C36.7745 34.2523 37.0562 34.1382 37.227 34.0225H37.2284Z" fill="#1946E0"/>
<path d="M48.4369 28.0431C48.6205 27.2966 49.2025 26.9911 50.1871 27.1238C50.7122 27.1952 51.0978 27.288 51.3426 27.405C51.5873 27.5207 51.7467 27.6862 51.8207 27.9032C51.8947 28.1202 51.9302 28.3072 51.9302 28.4656C51.9302 28.6241 51.9075 28.8581 51.8662 29.1693L50.91 36.265C50.8687 36.5762 50.826 36.8074 50.7848 36.9601C50.7435 37.1129 50.6624 37.2842 50.54 37.474C50.3038 37.7995 49.8186 37.9137 49.0844 37.8137C48.3501 37.7138 47.8706 37.5568 47.6458 37.3398C47.4209 37.1229 47.3114 36.8374 47.3185 36.4805C46.7237 37.13 45.8429 37.3741 44.6775 37.2171C43.5121 37.0586 42.5018 36.3792 41.6495 35.1759C40.7957 33.9726 40.4642 32.6651 40.6549 31.2519C40.8455 29.8402 41.5143 28.6712 42.6612 27.7462C43.8081 26.8212 44.9806 26.4401 46.1801 26.6028C46.6383 26.6642 47.0453 26.8027 47.401 27.0154C47.7568 27.2295 47.9987 27.4165 48.1281 27.5792C48.2576 27.7405 48.3601 27.8961 48.4355 28.0445L48.4369 28.0431ZM44.1894 31.7615C44.1297 32.2069 44.2506 32.6337 44.5523 33.039C44.854 33.4444 45.2538 33.6814 45.7533 33.7485C46.2513 33.8156 46.691 33.6899 47.0695 33.3702C47.448 33.0505 47.6685 32.6708 47.7269 32.2311C47.7866 31.7915 47.6828 31.3618 47.4167 30.9407C47.1506 30.5197 46.7522 30.2727 46.22 30.1999C45.6878 30.1271 45.231 30.2584 44.8497 30.5925C44.4683 30.9265 44.2478 31.3162 44.188 31.7615H44.1894Z" fill="#1946E0"/>
<path d="M61.2434 26.2317C61.5294 26.3188 61.7685 26.4701 61.9591 26.687C62.1498 26.904 62.248 27.2523 62.2537 27.7348C62.2594 28.2172 62.1228 28.7468 61.8453 29.3221C61.5664 29.8987 61.1566 30.1899 60.6159 30.1956C60.3455 30.1985 60.0851 30.1414 59.8361 30.0243C59.5871 29.9073 59.2598 29.8502 58.8529 29.8559C58.4473 29.8602 58.0688 30.0086 57.7202 30.2998C57.3702 30.591 57.198 30.9393 57.2037 31.3461L57.2606 36.0937C57.2649 36.4406 57.2563 36.7004 57.2364 36.8745C57.2165 37.0486 57.1468 37.2485 57.0301 37.4769C56.8095 37.8723 56.2261 38.075 55.2799 38.0864C54.5584 38.0949 54.039 37.9736 53.7203 37.721C53.477 37.5126 53.3375 37.1914 53.3034 36.7532C53.302 36.6033 53.2991 36.3835 53.2948 36.098L53.1981 28.1616C53.1938 27.8147 53.2024 27.5549 53.2223 27.3808C53.2422 27.2081 53.3048 27.0139 53.4073 26.8012C53.6122 26.3916 54.1956 26.1817 55.1575 26.1689C56.0596 26.1575 56.6245 26.3245 56.8536 26.6685C57.0215 26.9083 57.1069 27.1552 57.1112 27.4122C57.1852 27.3065 57.2919 27.1767 57.4328 27.0239C57.5736 26.8712 57.8753 26.6642 58.3378 26.4016C58.8002 26.1403 59.2086 26.0062 59.5615 26.0019C59.9144 25.9976 60.2118 26.0133 60.4522 26.0476C60.6927 26.0833 60.9574 26.1432 61.2434 26.2303V26.2317Z" fill="#1946E0"/>
<path d="M73.3839 31.2391C73.3242 32.1284 73.0581 32.7721 72.5899 33.1675C72.1204 33.5643 71.6195 33.7442 71.0873 33.7071L65.9633 33.3559C65.9363 33.7613 66.1497 34.1167 66.6079 34.4236C67.0647 34.7305 67.5314 34.9004 68.0066 34.9332C68.8433 34.9903 69.505 34.9489 69.9916 34.8076L70.235 34.7377C70.5921 34.6021 70.8852 34.5421 71.1158 34.5578C71.5768 34.5892 71.951 34.9418 72.2385 35.6155C72.3993 36.0195 72.4704 36.3578 72.4519 36.6318C72.3637 37.9194 70.7856 38.4575 67.7149 38.2463C66.6477 38.1735 65.7129 37.9237 64.9089 37.4983C64.1049 37.0729 63.4931 36.5405 63.0733 35.901C62.2451 34.6677 61.8794 33.3274 61.9776 31.8814C62.1014 30.06 62.7873 28.6426 64.0366 27.632C65.286 26.6214 66.7886 26.1746 68.5488 26.2959C70.5523 26.433 71.9738 27.2423 72.8148 28.724C73.253 29.5091 73.4423 30.3469 73.3825 31.2362L73.3839 31.2391ZM68.7779 31.566C69.3257 31.6031 69.6146 31.3904 69.6473 30.9279C69.6701 30.5953 69.5619 30.3198 69.3229 30.1C69.0838 29.8802 68.7309 29.7546 68.2628 29.7217C67.7946 29.6903 67.3165 29.8502 66.8284 30.2013C66.3404 30.5525 66.0828 30.9465 66.0529 31.379L68.7779 31.566Z" fill="#1946E0"/>
<path d="M29.462 9.13271C30.0137 9.13271 30.4609 8.68408 30.4609 8.13067C30.4609 7.57725 30.0137 7.12862 29.462 7.12862C28.9103 7.12862 28.4631 7.57725 28.4631 8.13067C28.4631 8.68408 28.9103 9.13271 29.462 9.13271Z" fill="#FC6E5F"/>
<path d="M33.4975 8.23201C34.0491 8.23201 34.4964 7.78338 34.4964 7.22997C34.4964 6.67656 34.0491 6.22792 33.4975 6.22792C32.9458 6.22792 32.4986 6.67656 32.4986 7.22997C32.4986 7.78338 32.9458 8.23201 33.4975 8.23201Z" fill="#FC6E5F"/>
<path d="M49.211 13.9374L49.5966 13.4863C50.1018 12.9967 50.4746 12.7227 50.7179 12.6641C51.2543 12.5342 51.9502 12.8797 52.8068 13.7019C53.3333 14.2172 53.6406 14.6568 53.7288 15.0222C53.8171 15.3862 53.773 15.7188 53.5979 16.0186C53.4229 16.3183 53.2024 16.6009 52.9363 16.8679C52.6702 17.1348 52.4155 17.3889 52.1721 17.6315C51.9288 17.8742 51.3981 18.241 50.5827 18.7321C49.7674 19.2231 48.9478 19.5685 48.1267 19.7669C47.3043 19.9654 46.4477 20.0581 45.5569 20.0439C44.6647 20.0296 43.7128 19.8754 42.6982 19.5785C41.6836 19.2831 40.7331 18.8505 39.8466 18.2853C38.9601 17.72 38.1476 16.915 37.412 15.8715C36.6763 14.8281 36.1456 13.6291 35.8197 12.2759C35.4938 10.9227 35.4241 9.63944 35.6091 8.429C35.7941 7.21855 36.1498 6.16797 36.6777 5.27727C37.2057 4.38799 37.8602 3.59149 38.6428 2.88635C40.1127 1.53887 41.705 0.658154 43.4182 0.242777C44.2307 0.0457934 45.0873 -0.0270047 45.988 0.0201C46.8873 0.0686321 47.5846 0.171406 48.0798 0.326994L48.7898 0.541106C49.147 0.656727 49.4273 0.753791 49.6293 0.833726C50.1672 1.08923 50.4916 1.44751 50.6012 1.90714C50.7122 2.36677 50.6453 2.89348 50.4034 3.48443C49.9538 4.58497 49.4614 5.20019 48.925 5.33008C48.6134 5.40573 48.1267 5.32152 47.4636 5.07743C46.5956 4.66348 45.5555 4.6021 44.3445 4.89615C43.219 5.16878 42.2059 5.82682 41.3037 6.87169C40.8768 7.37985 40.5737 8.02218 40.3945 8.80013C40.2152 9.57807 40.2308 10.406 40.4414 11.2824C40.652 12.1588 41.0134 12.9025 41.5271 13.5134C42.0394 14.1244 42.6128 14.564 43.2446 14.8338C44.484 15.342 45.6736 15.4576 46.8162 15.1821C47.3526 15.0522 47.8421 14.8609 48.2847 14.6068C48.7272 14.3528 49.036 14.1315 49.2096 13.9417L49.211 13.9374Z" fill="#1946E0"/>
<path d="M34.6785 12.5499C34.4708 11.6849 34.3598 10.8385 34.3413 10.0149C34.0894 10.6101 33.5017 11.5879 32.288 11.8819C30.3414 12.353 29.3425 10.887 29.2927 10.8128C29.0308 10.4045 28.4887 10.2846 28.0789 10.5459C27.6677 10.8071 27.5453 11.3538 27.8071 11.7663C27.8655 11.8591 29.0935 13.7504 31.5039 13.7504C31.8753 13.7504 32.2752 13.7047 32.702 13.6019C33.5373 13.3993 34.1819 13.0081 34.6799 12.5528C34.6799 12.5528 34.6799 12.5514 34.6799 12.5499H34.6785Z" fill="#FC6E5F"/>
<path d="M36.4529 16.5496C35.888 15.7488 35.4312 14.8566 35.0826 13.8917L35.0442 13.936C34.8706 14.1258 34.5618 14.3471 34.1193 14.6011C33.6768 14.8552 33.1873 15.0465 32.6508 15.1764C31.5082 15.4533 30.3186 15.3377 29.0792 14.8281C28.4474 14.5583 27.874 14.1187 27.3617 13.5077C26.8481 12.8982 26.4866 12.1531 26.276 11.2767C26.0654 10.4003 26.0498 9.57236 26.2291 8.79442C26.4084 8.01647 26.7115 7.37414 27.1383 6.86598C28.0405 5.82111 29.0536 5.16307 30.1792 4.89044C31.3901 4.59782 32.4303 4.65777 33.2983 5.07172C33.9613 5.31581 34.448 5.40002 34.7596 5.32437C35.2961 5.19448 35.7884 4.57926 36.2381 3.47872C36.4799 2.88777 36.5468 2.36249 36.4358 1.90143C36.3249 1.4418 36.0004 1.08352 35.464 0.828016C35.2619 0.748081 34.9816 0.651017 34.6244 0.535397L33.9144 0.321284C33.4192 0.165696 32.722 0.0629224 31.8227 0.0143903C30.9234 -0.0341418 30.0668 0.0400838 29.2528 0.237067C27.5396 0.651017 25.9473 1.53316 24.4774 2.88064C23.6948 3.58435 23.0388 4.38085 22.5124 5.27156C21.9844 6.16084 21.6287 7.21141 21.4437 8.42329C21.2587 9.63516 21.3299 10.917 21.6543 12.2702C21.9802 13.6234 22.5109 14.8224 23.2466 15.8658C23.9823 16.9093 24.7933 17.7143 25.6812 18.2796C26.5677 18.8463 27.5183 19.2773 28.5328 19.5728C29.5474 19.8697 30.4993 20.0253 31.3915 20.0382C32.2823 20.0524 33.1389 19.9596 33.9613 19.7612C34.7824 19.5628 35.602 19.2174 36.4173 18.7264C36.9282 18.4195 37.3266 18.1597 37.614 17.9499C37.2085 17.5316 36.82 17.0649 36.4543 16.5467L36.4529 16.5496Z" fill="#FC6E5F"/>
<path d="M43.6288 9.13271C44.1805 9.13271 44.6277 8.68408 44.6277 8.13067C44.6277 7.57725 44.1805 7.12862 43.6288 7.12862C43.0771 7.12862 42.6299 7.57725 42.6299 8.13067C42.6299 8.68408 43.0771 9.13271 43.6288 9.13271Z" fill="#1946E0"/>
<path d="M47.6643 8.23201C48.216 8.23201 48.6632 7.78338 48.6632 7.22997C48.6632 6.67656 48.216 6.22792 47.6643 6.22792C47.1126 6.22792 46.6654 6.67656 46.6654 7.22997C46.6654 7.78338 47.1126 8.23201 47.6643 8.23201Z" fill="#1946E0"/>
<path d="M45.6679 13.936C43.1592 13.936 41.8772 11.9618 41.816 11.8648C41.5001 11.3652 41.6481 10.7043 42.1461 10.3874C42.6413 10.0719 43.2958 10.2175 43.6132 10.71C43.7156 10.8642 44.6234 12.1331 46.4107 11.7006C48.047 11.3052 48.4739 9.56379 48.491 9.49099C48.6176 8.91289 49.1882 8.55318 49.7617 8.68022C50.3365 8.80726 50.6994 9.38251 50.5728 9.96061C50.5443 10.0877 49.857 13.0709 46.9101 13.7832C46.4662 13.8903 46.0521 13.9374 45.6665 13.9374L45.6679 13.936Z" fill="#1946E0"/>
</svg>
