<svg width="118" height="78" viewBox="0 0 118 78" fill="none" xmlns="http://www.w3.org/2000/svg">
<g clip-path="url(#clip0_11_85)">
<path d="M52.4718 48.8312C51.6543 45.4643 51.2176 42.1697 51.1448 38.9639C50.1539 41.2807 47.8416 45.0865 43.0658 46.2311C35.4067 48.0645 31.4763 42.3586 31.2804 42.0696C30.2502 40.4806 28.117 40.0139 26.5046 41.0307C24.8865 42.0474 24.4051 44.1754 25.4352 45.781C25.6648 46.1422 30.4965 53.5038 39.9809 53.5038C41.4422 53.5038 43.0154 53.326 44.695 52.926C47.9815 52.137 50.5178 50.6147 52.4774 48.8424C52.4774 48.8424 52.4774 48.8368 52.4774 48.8312H52.4718Z" fill="#FF7E61"/>
<path d="M31.9467 35.5303C34.1174 35.5303 35.8771 33.7841 35.8771 31.63C35.8771 29.476 34.1174 27.7297 31.9467 27.7297C29.776 27.7297 28.0164 29.476 28.0164 31.63C28.0164 33.7841 29.776 35.5303 31.9467 35.5303Z" fill="#FF7E61"/>
<path d="M47.8249 32.0245C49.9955 32.0245 51.7552 30.2783 51.7552 28.1242C51.7552 25.9702 49.9955 24.2239 47.8249 24.2239C45.6542 24.2239 43.8945 25.9702 43.8945 28.1242C43.8945 30.2783 45.6542 32.0245 47.8249 32.0245Z" fill="#FF7E61"/>
<path d="M59.4591 64.3989C57.2363 61.2821 55.4391 57.8096 54.0674 54.0538L53.9163 54.226C53.2332 54.9649 52.0183 55.8261 50.2771 56.8151C48.5358 57.804 46.6099 58.5485 44.4991 59.0541C40.0033 60.132 35.3227 59.6819 30.4462 57.6985C27.9603 56.6484 25.704 54.9372 23.6884 52.5592C21.6673 50.1868 20.2452 47.2866 19.4166 43.8753C18.5879 40.4639 18.5263 37.2415 19.2318 34.2135C19.9372 31.1855 21.1298 28.6853 22.8094 26.7074C26.359 22.6404 30.3454 20.0791 34.774 19.0179C39.5386 17.879 43.6313 18.1123 47.0466 19.7235C49.6556 20.6736 51.5704 21.0014 52.7965 20.7069C54.9073 20.2013 56.8444 17.8067 58.6136 13.5231C59.5654 11.2229 59.8286 9.17834 59.3919 7.38377C58.9552 5.59475 57.6786 4.20021 55.5679 3.20569C54.7729 2.89456 53.6699 2.51675 52.2646 2.06672L49.4708 1.23333C47.5225 0.627731 44.779 0.227702 41.2406 0.0387998C37.7022 -0.150103 34.3317 0.138807 31.1292 0.905528C24.3883 2.51675 18.1232 5.95033 12.3397 11.1952C9.26036 13.9342 6.67932 17.0345 4.60776 20.5014C2.53062 23.9627 1.13092 28.0519 0.403077 32.7689C-0.324765 37.4859 -0.0448254 42.4752 1.2317 47.7422C2.51382 53.0092 4.60217 57.6762 7.49674 61.7376C10.3913 65.799 13.5826 68.9326 17.0763 71.1328C20.5643 73.3385 24.3043 75.0164 28.2962 76.1664C32.2882 77.3221 36.0337 77.9277 39.5442 77.9777C43.049 78.0332 46.4195 77.6721 49.6556 76.8998C52.8861 76.1276 56.111 74.783 59.3191 72.8718C61.3291 71.6772 62.8967 70.6661 64.0277 69.8493C62.432 68.2214 60.9035 66.4046 59.4647 64.3878L59.4591 64.3989Z" fill="#FF7E61"/>
<path d="M102.805 54.3261L104.093 52.8371C105.772 51.2259 107.021 50.3203 107.827 50.1258C109.613 49.698 111.936 50.837 114.786 53.5427C116.539 55.2428 117.563 56.6929 117.854 57.893C118.146 59.0931 118 60.1876 117.418 61.1766C116.835 62.1655 116.102 63.0989 115.217 63.9768C114.333 64.8546 113.482 65.6936 112.67 66.4936C111.858 67.2937 110.094 68.5049 107.373 70.1217C104.658 71.7384 101.926 72.8774 99.188 73.533C96.4502 74.1886 93.5949 74.4942 90.6275 74.4498C87.6545 74.4053 84.48 73.8942 81.104 72.9163C77.7223 71.9385 74.559 70.5217 71.6028 68.6549C68.6467 66.7881 65.9425 64.1379 63.4902 60.6988C61.0379 57.2596 59.2687 53.3094 58.1825 48.8479C57.0964 44.3865 56.8612 40.1584 57.4771 36.1692C58.093 32.1801 59.2799 28.7132 61.0379 25.7852C62.7959 22.8516 64.9795 20.2292 67.5885 17.9068C72.4874 13.4676 77.7895 10.5619 83.5002 9.1951C86.2101 8.54506 89.0598 8.30615 92.0608 8.46172C95.0561 8.62284 97.3796 8.9562 99.0313 9.4729L101.4 10.1785C102.592 10.5619 103.522 10.8841 104.193 11.1452C105.985 11.9897 107.066 13.1676 107.435 14.6844C107.805 16.2012 107.586 17.9346 106.774 19.8792C105.274 23.5072 103.633 25.5352 101.847 25.963C100.812 26.213 99.188 25.9352 96.9765 25.1296C94.082 23.7628 90.6163 23.5628 86.5796 24.5295C82.834 25.424 79.4579 27.5964 76.4514 31.0411C75.0293 32.7134 74.0159 34.8358 73.4224 37.3971C72.8234 39.964 72.8793 42.6864 73.5792 45.5755C74.279 48.4646 75.4884 50.9147 77.196 52.926C78.9036 54.9373 80.8128 56.3874 82.918 57.2763C87.0443 58.9542 91.0138 59.332 94.8154 58.4208C96.6014 57.993 98.2306 57.3596 99.7087 56.5207C101.181 55.6818 102.211 54.9539 102.788 54.3317L102.805 54.3261Z" fill="url(#paint0_linear_11_85)"/>
<path d="M84.2058 38.4861C86.0425 38.4861 87.5315 37.0085 87.5315 35.1859C87.5315 33.3632 86.0425 31.8856 84.2058 31.8856C82.3691 31.8856 80.8801 33.3632 80.8801 35.1859C80.8801 37.0085 82.3691 38.4861 84.2058 38.4861Z" fill="url(#paint1_linear_11_85)"/>
<path d="M97.6484 35.5192C99.4852 35.5192 100.974 34.0416 100.974 32.2189C100.974 30.3963 99.4852 28.9187 97.6484 28.9187C95.8117 28.9187 94.3228 30.3963 94.3228 32.2189C94.3228 34.0416 95.8117 35.5192 97.6484 35.5192Z" fill="url(#paint2_linear_11_85)"/>
<path fill-rule="evenodd" clip-rule="evenodd" d="M104.519 37.5243C106.137 37.8835 107.157 39.4859 106.797 41.1033L103.931 40.4668C106.797 41.1033 106.797 41.1046 106.797 41.1059L106.796 41.1087L106.795 41.1148L106.792 41.1293L106.783 41.1672C106.776 41.1964 106.767 41.2334 106.756 41.2777C106.733 41.3663 106.702 41.4845 106.661 41.6286C106.578 41.9163 106.455 42.3099 106.282 42.7797C105.938 43.7141 105.385 44.979 104.539 46.32C102.844 49.0055 99.8767 52.132 95.0048 53.2989C89.6823 54.5737 85.5529 53.1082 82.7961 51.2766C81.4444 50.3784 80.4339 49.4034 79.756 48.6478C79.4151 48.2679 79.1526 47.937 78.9677 47.6893C78.8751 47.5653 78.8014 47.4614 78.7466 47.3819C78.7192 47.3421 78.6965 47.3084 78.6785 47.2812L78.6549 47.2453L78.6457 47.2311L78.6418 47.225L78.64 47.2222C78.6391 47.2208 78.6383 47.2195 81.1657 45.6033L78.6383 47.2195C77.7456 45.8237 78.1536 43.9685 79.5494 43.0759C80.9386 42.1875 82.7827 42.5873 83.6802 43.967C83.6802 43.967 83.6802 43.967 83.6802 43.9671C83.6817 43.9693 83.6842 43.973 83.6877 43.978C83.7015 43.9982 83.7308 44.0399 83.7755 44.0997C83.865 44.2197 84.0142 44.4094 84.2221 44.6411C84.6415 45.1086 85.2764 45.7208 86.1166 46.2791C87.7436 47.3601 90.1844 48.2837 93.6072 47.4639L93.6072 47.4639C96.5064 46.7695 98.3202 44.9318 99.4643 43.1184C100.038 42.2099 100.418 41.3417 100.652 40.7053C100.769 40.3897 100.846 40.1385 100.892 39.9778C100.915 39.8976 100.93 39.8407 100.938 39.8102L100.944 39.7861C101.31 38.1782 102.907 37.1663 104.519 37.5243Z" fill="url(#paint3_linear_11_85)"/>
</g>
<defs>
<linearGradient id="paint0_linear_11_85" x1="86.5977" y1="8.86727" x2="86.666" y2="74.4549" gradientUnits="userSpaceOnUse">
<stop stop-color="#2558D5"/>
<stop offset="1" stop-color="#1673DF"/>
</linearGradient>
<linearGradient id="paint1_linear_11_85" x1="84.0994" y1="31.9307" x2="84.1056" y2="38.4862" gradientUnits="userSpaceOnUse">
<stop stop-color="#2558D5"/>
<stop offset="1" stop-color="#1673DF"/>
</linearGradient>
<linearGradient id="paint2_linear_11_85" x1="97.542" y1="28.9638" x2="97.5483" y2="35.5193" gradientUnits="userSpaceOnUse">
<stop stop-color="#2558D5"/>
<stop offset="1" stop-color="#1673DF"/>
</linearGradient>
<linearGradient id="paint3_linear_11_85" x1="92.0581" y1="37.5639" x2="92.0669" y2="53.7795" gradientUnits="userSpaceOnUse">
<stop stop-color="#2558D5"/>
<stop offset="1" stop-color="#1673DF"/>
</linearGradient>
<clipPath id="clip0_11_85">
<rect width="118" height="78" fill="white"/>
</clipPath>
</defs>
</svg>
